<?xml version="1.0" standalone="no"?>
<!DOCTYPE svg PUBLIC "-//W3C//DTD SVG 20010904//EN"
 "http://www.w3.org/TR/2001/REC-SVG-20010904/DTD/svg10.dtd">
<svg version="1.0" xmlns="http://www.w3.org/2000/svg"
 width="531.000000pt" height="531.000000pt" viewBox="0 0 531.000000 531.000000"
 preserveAspectRatio="xMidYMid meet">
<metadata>
Created by potrace 1.14, written by Peter Selinger 2001-2017
</metadata>
<g transform="translate(0.000000,531.000000) scale(0.100000,-0.100000)"
fill="#000000" stroke="none">
<path d="M2518 5145 c-2 -2 -30 -6 -63 -10 -33 -4 -73 -9 -90 -11 -16 -2 -39
-5 -50 -7 -11 -3 -40 -8 -65 -12 -25 -4 -54 -9 -65 -12 -11 -2 -33 -7 -50 -10
-39 -7 -228 -70 -285 -95 -80 -35 -195 -91 -200 -97 -3 -3 -30 -19 -60 -35
-229 -120 -492 -335 -756 -617 -87 -94 -253 -323 -287 -399 -4 -8 -18 -33 -32
-55 -26 -43 -112 -214 -139 -280 -30 -69 -33 -79 -49 -125 -23 -67 -74 -241
-81 -275 -9 -45 -17 -88 -21 -110 -2 -11 -6 -36 -9 -55 -21 -115 -23 -172 -21
-444 2 -166 5 -317 8 -336 3 -19 8 -48 11 -65 3 -16 8 -45 11 -62 18 -111 29
-163 50 -238 15 -57 22 -79 60 -184 45 -124 155 -327 249 -455 28 -39 79 -109
113 -156 89 -122 113 -149 126 -145 7 2 28 6 47 8 33 4 291 86 355 112 17 7
45 18 63 25 42 16 61 53 78 153 20 116 73 168 185 181 23 3 46 9 51 14 18 18
23 69 33 367 2 88 7 176 9 195 3 19 7 60 10 90 6 55 11 86 22 138 3 15 7 40
10 57 18 95 108 199 279 322 142 103 158 119 150 150 -9 38 -155 251 -155 227
0 -5 -5 -3 -12 4 -18 18 -21 16 -78 -38 -64 -61 -475 -339 -489 -331 -2 2 -7
-2 -10 -8 -8 -13 -196 -109 -286 -146 -90 -37 -114 -55 -169 -126 -69 -89
-125 -115 -183 -85 -70 36 -101 116 -72 188 33 84 131 194 255 288 226 171
414 337 504 445 23 28 194 265 222 309 7 11 28 36 46 56 17 21 32 43 32 49 0
6 -35 46 -78 89 -127 124 -166 204 -165 337 0 87 37 197 81 240 66 66 132 107
193 121 100 24 215 -10 300 -88 37 -34 119 -144 119 -160 0 -5 15 -33 34 -63
40 -61 25 -61 216 -3 36 11 72 21 80 23 8 1 35 9 60 16 25 7 50 13 55 15 6 1
55 14 110 29 55 15 107 28 115 30 8 2 42 10 75 18 33 9 71 18 85 21 14 3 34 7
45 10 68 16 397 86 430 91 22 3 47 8 55 10 20 6 68 14 142 24 148 20 240 -3
277 -70 26 -46 26 -42 4 -81 -32 -57 -94 -108 -210 -175 -42 -23 -82 -43 -90
-43 -7 0 -13 -4 -13 -10 0 -5 -8 -10 -18 -10 -10 0 -22 -4 -27 -9 -6 -5 -50
-26 -100 -46 -49 -21 -103 -43 -120 -50 -16 -7 -55 -20 -85 -30 -30 -10 -77
-28 -105 -40 -27 -12 -84 -37 -125 -54 -158 -67 -217 -99 -223 -120 -3 -12 -1
-21 4 -21 5 0 9 -7 9 -16 0 -9 38 -73 83 -143 113 -169 155 -239 218 -356 l54
-100 0 -115 0 -116 88 -119 c128 -173 169 -236 216 -329 34 -66 64 -88 99 -73
27 11 243 137 252 147 9 10 69 50 74 50 3 0 49 29 103 64 188 122 339 196 439
213 167 28 298 -23 383 -151 23 -35 26 -49 25 -125 0 -77 -3 -92 -30 -139 -73
-128 -165 -234 -249 -287 -72 -46 -272 -144 -279 -138 -3 4 -6 1 -6 -5 0 -7
-7 -12 -15 -12 -8 0 -23 -5 -33 -10 -15 -9 -420 -176 -447 -184 -26 -8 -53
-19 -85 -36 -19 -10 -38 -19 -43 -19 -8 -1 -23 -7 -205 -85 -73 -32 -145 -64
-160 -72 -15 -8 -31 -14 -35 -14 -5 0 -32 -11 -60 -24 -29 -13 -104 -45 -167
-71 -63 -26 -140 -59 -170 -72 -55 -25 -84 -38 -273 -127 -54 -25 -100 -46
-102 -46 -6 0 -198 -90 -215 -101 -8 -5 -22 -12 -30 -15 -47 -19 -281 -127
-311 -143 -8 -5 -83 -44 -165 -86 -82 -43 -150 -82 -152 -86 -2 -5 -10 -9 -17
-9 -23 0 -162 -89 -169 -107 -15 -37 73 -85 286 -157 145 -49 210 -67 288 -82
14 -2 36 -7 50 -10 14 -3 36 -8 50 -10 14 -2 34 -6 45 -9 11 -2 49 -7 85 -11
36 -3 68 -8 71 -10 11 -6 225 -18 324 -18 101 1 283 10 320 18 11 2 47 7 80
11 32 4 67 8 76 10 9 2 34 6 55 9 22 4 57 11 79 17 22 6 49 13 60 16 25 5 36
9 55 16 8 3 40 13 70 23 67 20 233 96 315 143 33 18 69 39 80 45 48 27 237
157 255 176 3 3 34 29 70 59 120 98 270 250 368 371 29 36 58 72 65 80 26 29
124 176 172 255 141 234 262 545 290 745 2 14 4 25 5 25 1 0 3 9 5 20 31 190
25 690 -10 873 -3 15 -8 43 -11 62 -10 69 -57 247 -96 365 -33 99 -129 317
-148 335 -3 3 -16 25 -29 50 -24 45 -166 261 -194 296 -81 102 -168 202 -234
270 -44 46 -218 194 -228 194 -3 0 -16 9 -28 21 -29 28 -240 169 -297 199 -25
14 -52 30 -60 36 -16 13 -193 103 -250 127 -44 19 -177 64 -210 71 -14 3 -55
12 -92 20 -61 14 -117 24 -238 42 -42 6 -437 14 -442 9z"/>
<path d="M2690 2312 c0 -4 -22 -16 -50 -27 -27 -11 -50 -23 -50 -27 0 -4 -4
-8 -9 -8 -30 0 -407 -186 -423 -209 -14 -20 -15 -53 -3 -141 3 -19 7 -82 10
-140 9 -191 16 -246 38 -305 16 -43 26 -46 61 -21 17 12 63 35 101 51 85 35
389 187 393 198 2 4 9 7 16 7 6 0 41 16 76 35 36 19 72 35 81 35 9 0 23 8 32
18 15 16 14 22 -7 72 -38 94 -51 120 -58 120 -5 0 -8 6 -8 14 0 24 -154 314
-174 328 -14 10 -26 10 -26 0z"/>
</g>
</svg>
